<svg xmlns="http://www.w3.org/2000/svg" version="1.1" xmlns:xlink="http://www.w3.org/1999/xlink" xmlns:svgjs="http://svgjs.dev/svgjs" width="1500" height="1500" viewBox="0 0 1500 1500"><rect width="1500" height="1500" fill="#ffffff"></rect><g transform="matrix(0.6666666666666666,0,0,0.6666666666666666,248.52885176317386,289.51935483870966)"><svg viewBox="0 0 270 248" data-background-color="#dbd2d2" preserveAspectRatio="xMidYMid meet" height="1377" width="1500" xmlns="http://www.w3.org/2000/svg" xmlns:xlink="http://www.w3.org/1999/xlink"><g id="tight-bounds" transform="matrix(1,0,0,1,0.39721002394304605,0.4000000000000057)"><svg viewBox="0 0 269.2055799521139 247.2" height="247.2" width="269.2055799521139"><g><svg viewBox="0 0 395.52000000000004 363.1891434694322" height="247.2" width="269.2055799521139"><g transform="matrix(1,0,0,1,0,261.2251711339242)"><svg viewBox="0 0 395.52000000000004 101.96397233550798" height="101.96397233550798" width="395.52000000000004"><g id="textblocktransform"><svg viewBox="0 0 395.52000000000004 101.96397233550798" height="101.96397233550798" width="395.52000000000004" id="textblock"><g><svg viewBox="0 0 395.52000000000004 67.72908270676692" height="67.72908270676692" width="395.52000000000004"><g transform="matrix(1,0,0,1,0,0)"><svg width="395.52000000000004" viewBox="4.15 -35.5 265.97 45.575527426160335" height="67.72908270676692" data-palette-color="#43434c"><path d="M21.3 0Q20.9 0 20.75-0.4L20.75-0.4 14.55-15.85Q14.5-16 14.35-16L14.35-16 7.9-16Q7.7-16 7.7-15.8L7.7-15.8 7.7-0.5Q7.7 0 7.2 0L7.2 0 4.65 0Q4.15 0 4.15-0.5L4.15-0.5 4.15-34.5Q4.15-35 4.65-35L4.65-35 15.25-35Q17.85-35 19.88-33.8 21.9-32.6 23.03-30.4 24.15-28.2 24.15-25.35L24.15-25.35Q24.15-21.95 22.5-19.55 20.85-17.15 18-16.35L18-16.35Q17.8-16.25 17.9-16.1L17.9-16.1 24.35-0.6 24.4-0.4Q24.4 0 23.95 0L23.95 0 21.3 0ZM7.9-31.9Q7.7-31.9 7.7-31.7L7.7-31.7 7.7-19.05Q7.7-18.85 7.9-18.85L7.9-18.85 14.8-18.85Q17.4-18.85 19-20.65 20.6-22.45 20.6-25.35L20.6-25.35Q20.6-28.3 19-30.1 17.4-31.9 14.8-31.9L14.8-31.9 7.9-31.9ZM43.35-24.8Q43.35-25.3 43.85-25.3L43.85-25.3 46.4-25.3Q46.9-25.3 46.9-24.8L46.9-24.8 46.9-0.5Q46.9 0 46.4 0L46.4 0 43.85 0Q43.35 0 43.35-0.5L43.35-0.5 43.35-2.45Q43.35-2.6 43.27-2.6 43.2-2.6 43.1-2.5L43.1-2.5Q41.35 0.35 37.3 0.35L37.3 0.35Q33.9 0.35 31.75-1.65 29.6-3.65 29.6-7.45L29.6-7.45 29.6-24.8Q29.6-25.3 30.1-25.3L30.1-25.3 32.65-25.3Q33.15-25.3 33.15-24.8L33.15-24.8 33.15-8.35Q33.15-5.7 34.45-4.23 35.75-2.75 38.1-2.75L38.1-2.75Q40.55-2.75 41.95-4.33 43.35-5.9 43.35-8.55L43.35-8.55 43.35-24.8ZM59.65 0Q59.25 0 59.1-0.4L59.1-0.4 51.85-24.75 51.8-24.9Q51.8-25.3 52.3-25.3L52.3-25.3 55.1-25.3Q55.55-25.3 55.65-24.85L55.65-24.85 60.95-5.35Q61-5.25 61.07-5.25 61.15-5.25 61.2-5.35L61.2-5.35 66.45-24.85Q66.55-25.3 67-25.3L67-25.3 69.84-25.25Q70.09-25.25 70.22-25.1 70.34-24.95 70.3-24.7L70.3-24.7 63.1-0.4Q62.95 0 62.55 0L62.55 0 59.65 0ZM88.69-24.8Q88.69-25.3 89.19-25.3L89.19-25.3 91.74-25.3Q92.24-25.3 92.24-24.8L92.24-24.8 92.24-0.5Q92.24 0 91.74 0L91.74 0 89.19 0Q88.69 0 88.69-0.5L88.69-0.5 88.69-2.45Q88.69-2.6 88.62-2.6 88.54-2.6 88.44-2.5L88.44-2.5Q86.69 0.35 82.64 0.35L82.64 0.35Q79.24 0.35 77.09-1.65 74.94-3.65 74.94-7.45L74.94-7.45 74.94-24.8Q74.94-25.3 75.44-25.3L75.44-25.3 77.99-25.3Q78.49-25.3 78.49-24.8L78.49-24.8 78.49-8.35Q78.49-5.7 79.79-4.23 81.09-2.75 83.44-2.75L83.44-2.75Q85.89-2.75 87.29-4.33 88.69-5.9 88.69-8.55L88.69-8.55 88.69-24.8ZM128.09-35Q128.59-35 128.59-34.5L128.59-34.5 128.59-32.4Q128.59-31.9 128.09-31.9L128.09-31.9 119.94-31.9Q119.74-31.9 119.74-31.7L119.74-31.7 119.74-0.5Q119.74 0 119.24 0L119.24 0 116.69 0Q116.19 0 116.19-0.5L116.19-0.5 116.19-31.7Q116.19-31.9 115.99-31.9L115.99-31.9 108.14-31.9Q107.64-31.9 107.64-32.4L107.64-32.4 107.64-34.5Q107.64-35 108.14-35L108.14-35 128.09-35ZM141.54-25.55Q143.04-25.55 144.09-24.95L144.09-24.95Q144.44-24.8 144.34-24.35L144.34-24.35 143.74-21.75Q143.69-21.25 143.14-21.45L143.14-21.45Q142.34-21.8 141.39-21.8L141.39-21.8 140.79-21.75Q138.59-21.7 137.14-19.85 135.69-18 135.69-15.35L135.69-15.35 135.69-0.5Q135.69 0 135.19 0L135.19 0 132.64 0Q132.14 0 132.14-0.5L132.14-0.5 132.14-24.8Q132.14-25.3 132.64-25.3L132.64-25.3 135.19-25.3Q135.69-25.3 135.69-24.8L135.69-24.8 135.69-21.55Q135.69-21.4 135.76-21.4 135.84-21.4 135.89-21.5L135.89-21.5Q136.74-23.4 138.16-24.48 139.59-25.55 141.54-25.55L141.54-25.55ZM156.58-25.7Q160.58-25.7 162.86-23.4 165.13-21.1 165.13-17.3L165.13-17.3 165.13-0.5Q165.13 0 164.63 0L164.63 0 162.08 0Q161.58 0 161.58-0.5L161.58-0.5 161.58-2.3Q161.58-2.4 161.51-2.45 161.43-2.5 161.33-2.4L161.33-2.4Q160.23-1 158.53-0.3 156.83 0.4 154.73 0.4L154.73 0.4Q151.58 0.4 149.36-1.3 147.13-3 147.13-6.85L147.13-6.85Q147.13-10.85 149.71-12.93 152.28-15 156.73-15L156.73-15 161.38-15Q161.58-15 161.58-15.2L161.58-15.2 161.58-17.1Q161.58-19.65 160.31-21.13 159.03-22.6 156.53-22.6L156.53-22.6Q154.58-22.6 153.28-21.63 151.98-20.65 151.73-19.05L151.73-19.05Q151.68-18.6 151.18-18.6L151.18-18.6 148.43-18.75Q148.18-18.75 148.06-18.9 147.93-19.05 147.98-19.25L147.98-19.25Q148.33-22.15 150.71-23.93 153.08-25.7 156.58-25.7L156.58-25.7ZM155.43-2.7Q157.93-2.7 159.76-4.08 161.58-5.45 161.58-7.9L161.58-7.9 161.58-11.95Q161.58-12.15 161.38-12.15L161.38-12.15 156.98-12.15Q154.13-12.15 152.43-10.83 150.73-9.5 150.73-7.05L150.73-7.05Q150.73-4.85 152.03-3.78 153.33-2.7 155.43-2.7L155.43-2.7ZM180.03 0.4Q176.43 0.4 174.08-1.58 171.73-3.55 171.23-6.9L171.23-6.9Q170.93-9.45 170.93-12.7L170.93-12.7Q170.93-15.25 171.23-18.45L171.23-18.45Q171.68-21.7 174.08-23.7 176.48-25.7 180.03-25.7L180.03-25.7Q183.58-25.7 186.01-23.8 188.43-21.9 188.83-19.05L188.83-19.05 188.98-18 188.98-17.9Q188.98-17.7 188.86-17.57 188.73-17.45 188.53-17.45L188.53-17.45 185.98-17.3Q185.53-17.3 185.43-17.75L185.43-17.75Q185.43-18.2 185.38-18.35L185.38-18.35Q185.13-20.1 183.66-21.35 182.18-22.6 180.03-22.6L180.03-22.6Q177.83-22.6 176.41-21.25 174.98-19.9 174.73-17.75L174.73-17.75Q174.48-15.6 174.48-12.65L174.48-12.65Q174.48-9.65 174.73-7.5L174.73-7.5Q174.98-5.3 176.41-4 177.83-2.7 180.03-2.7L180.03-2.7Q182.23-2.7 183.71-3.95 185.18-5.2 185.38-7L185.38-7 185.43-7.4Q185.53-7.95 185.98-7.85L185.98-7.85 188.48-7.65Q188.93-7.55 188.93-7.2L188.93-7.2 188.93-7Q188.93-6.8 188.83-6.4L188.83-6.4Q188.48-3.45 186.06-1.53 183.63 0.4 180.03 0.4L180.03 0.4ZM195.13 0Q194.63 0 194.63-0.5L194.63-0.5 194.63-34.5Q194.63-35 195.13-35L195.13-35 197.68-35Q198.18-35 198.18-34.5L198.18-34.5 198.18-14.2Q198.18-14.1 198.28-14.05 198.38-14 198.43-14.1L198.43-14.1 207.48-25Q207.73-25.3 208.08-25.3L208.08-25.3 210.93-25.3Q211.23-25.3 211.33-25.13 211.43-24.95 211.23-24.7L211.23-24.7 205.53-17.6Q205.43-17.45 205.48-17.35L205.48-17.35 212.23-0.6 212.28-0.4Q212.28 0 211.83 0L211.83 0 209.18 0Q208.78 0 208.63-0.4L208.63-0.4 203.18-14.7Q203.13-14.8 203.03-14.83 202.93-14.85 202.88-14.75L202.88-14.75 198.28-9.2Q198.18-9 198.18-8.95L198.18-8.95 198.18-0.5Q198.18 0 197.68 0L197.68 0 195.13 0ZM219.58-29.9Q218.33-29.9 217.55-30.7 216.78-31.5 216.78-32.7L216.78-32.7Q216.78-33.95 217.55-34.73 218.33-35.5 219.58-35.5L219.58-35.5Q220.78-35.5 221.58-34.73 222.38-33.95 222.38-32.7L222.38-32.7Q222.38-31.5 221.58-30.7 220.78-29.9 219.58-29.9L219.58-29.9ZM218.23 0Q217.73 0 217.73-0.5L217.73-0.5 217.73-24.8Q217.73-25.3 218.23-25.3L218.23-25.3 220.78-25.3Q221.28-25.3 221.28-24.8L221.28-24.8 221.28-0.5Q221.28 0 220.78 0L220.78 0 218.23 0ZM238.67-25.65Q242.17-25.65 244.2-23.43 246.22-21.2 246.22-17.35L246.22-17.35 246.22-0.5Q246.22 0 245.72 0L245.72 0 243.17 0Q242.67 0 242.67-0.5L242.67-0.5 242.67-16.85Q242.67-19.45 241.32-21 239.97-22.55 237.62-22.55L237.62-22.55Q235.27-22.55 233.85-20.98 232.42-19.4 232.42-16.75L232.42-16.75 232.42-0.5Q232.42 0 231.92 0L231.92 0 229.37 0Q228.87 0 228.87-0.5L228.87-0.5 228.87-24.8Q228.87-25.3 229.37-25.3L229.37-25.3 231.92-25.3Q232.42-25.3 232.42-24.8L232.42-24.8 232.42-22.85Q232.42-22.75 232.5-22.7 232.57-22.65 232.67-22.75L232.67-22.75Q234.62-25.65 238.67-25.65L238.67-25.65ZM266.57-24.8Q266.57-25.3 267.07-25.3L267.07-25.3 269.62-25.3Q270.12-25.3 270.12-24.8L270.12-24.8 270.12-0.7Q270.12 10.6 257.77 10.05L257.77 10.05Q257.27 10 257.27 9.5L257.27 9.5 257.32 7.25Q257.32 7 257.47 6.88 257.62 6.75 257.82 6.8L257.82 6.8Q262.52 6.95 264.55 5.08 266.57 3.2 266.57-0.9L266.57-0.9 266.57-2.55Q266.57-2.65 266.5-2.7 266.42-2.75 266.32-2.65L266.32-2.65Q264.37 0.15 260.52 0.15L260.52 0.15Q257.32 0.15 255.17-1.78 253.02-3.7 252.52-7L252.52-7Q252.22-9.2 252.22-12.65L252.22-12.65Q252.22-16.4 252.57-18.55L252.57-18.55Q252.97-21.8 255.1-23.75 257.22-25.7 260.42-25.7L260.42-25.7Q264.32-25.7 266.32-22.95L266.32-22.95Q266.42-22.85 266.5-22.88 266.57-22.9 266.57-23L266.57-23 266.57-24.8ZM266.42-7.7Q266.57-9.65 266.57-12.7L266.57-12.7Q266.57-15.7 266.42-17.8L266.42-17.8Q266.22-19.9 264.85-21.25 263.47-22.6 261.32-22.6L261.32-22.6Q259.17-22.6 257.75-21.25 256.32-19.9 256.02-17.8L256.02-17.8Q255.82-16 255.82-12.7L255.82-12.7Q255.82-10.2 256.02-7.7L256.02-7.7Q256.27-5.6 257.72-4.25 259.17-2.9 261.32-2.9L261.32-2.9Q263.47-2.9 264.85-4.25 266.22-5.6 266.42-7.7L266.42-7.7Z" opacity="1" transform="matrix(1,0,0,1,0,0)" fill="#000000" class="wordmark-text-0" data-fill-palette-color="primary" id="text-0"></path></svg></g></svg></g><g transform="matrix(1,0,0,1,75.54432,83.71829363584962)"><svg viewBox="0 0 244.43136000000004 18.24567869965835" height="18.24567869965835" width="244.43136000000004"><g transform="matrix(1,0,0,1,0,0)"><svg width="244.43136000000004" viewBox="3.25 -35.5 482.89 36.05" height="18.24567869965835" data-palette-color="#424351"><path d="M7.95-23.2L7.95 0 3.25 0 3.25-23Q3.25-28.9 6.43-32.2 9.6-35.5 14.85-35.5L14.85-35.5Q20.45-35.5 23.53-32.3 26.6-29.1 26.6-24.15L26.6-24.15Q26.6-21.05 25.48-18.75 24.35-16.45 22.45-15.2 20.55-13.95 18.4-13.35 16.25-12.75 13.9-12.75L13.9-12.75 10.15-12.75 10.15-17.15 14.45-17.15Q17.8-17.15 19.73-19.18 21.65-21.2 21.65-24.25L21.65-24.25Q21.65-27.25 19.88-29.18 18.1-31.1 14.8-31.1L14.8-31.1Q11.6-31.1 9.78-28.93 7.95-26.75 7.95-23.2L7.95-23.2ZM35 0L30.6 0 30.6-13.65Q30.6-19.4 32.75-21.6L32.75-21.6Q33.8-22.7 35.3-23.25 36.8-23.8 37.92-23.9 39.05-24 41-24L41-24 45.4-24 45.4-19.8 40.1-19.8Q39.1-19.8 38.55-19.75 38-19.7 37.25-19.4 36.5-19.1 35.95-18.45L35.95-18.45Q35-17.25 35-13.65L35-13.65 35 0ZM51.4-20.85L51.4-20.85Q54.9-24.5 60.15-24.5L60.15-24.5Q62.7-24.5 64.92-23.53 67.15-22.55 68.82-20.85 70.5-19.15 71.45-16.88 72.4-14.6 72.4-12L72.4-12Q72.4-9.4 71.47-7.13 70.55-4.85 68.9-3.15 67.25-1.45 65-0.48 62.75 0.5 60.15 0.5L60.15 0.5Q57.5 0.5 55.27-0.48 53.05-1.45 51.4-3.15 49.75-4.85 48.82-7.13 47.9-9.4 47.9-12L47.9-12Q47.9-17.3 51.4-20.85ZM60.15-20.3L60.15-20.3Q56.65-20.3 54.52-18 52.4-15.7 52.4-12 52.4-8.3 54.52-6 56.65-3.7 60.15-3.7L60.15-3.7Q63.7-3.7 65.8-6.03 67.9-8.35 67.9-12 67.9-15.65 65.8-17.98 63.7-20.3 60.15-20.3ZM79.59-19.8L75.14-19.8 84.09-28.75 84.09-24 90.84-24 90.84-19.8 84.09-19.8 84.09-9.5Q84.09-7.75 84.67-6.6 85.24-5.45 86.34-4.98 87.44-4.5 88.42-4.35 89.39-4.2 90.84-4.2L90.84-4.2 90.84 0Q85.09 0 82.34-2.2 79.59-4.4 79.59-9.5L79.59-9.5 79.59-19.8ZM107.34-24.5L107.34-24.5Q115.84-24.15 115.84-17.45L115.84-17.45Q115.84-9.1 104.89-9.1L104.89-9.1 102.84-9.1 102.84-12.95 105.24-12.95Q108.59-12.95 109.89-13.98 111.19-15 111.19-17.4L111.19-17.4Q111.19-18.95 110.04-19.73 108.89-20.5 107.09-20.5L107.09-20.5Q103.54-20.5 101.52-18 99.49-15.5 99.49-12L99.49-12Q99.49-8.3 101.67-6 103.84-3.7 107.34-3.7L107.34-3.7Q110.49-3.7 112.49-5.25L112.49-5.25 115.49-2.3Q112.04 0.5 107.34 0.5L107.34 0.5Q101.64 0.5 98.24-2.85 94.84-6.2 94.84-11.5L94.84-11.5Q94.84-17.4 98.19-21.05 101.54-24.7 107.34-24.5ZM137.24-5.25L137.24-5.25 140.24-2.3Q136.79 0.5 132.34 0.5L132.34 0.5Q126.79 0.5 123.44-3.08 120.09-6.65 120.09-12L120.09-12Q120.09-17.25 123.61-20.88 127.14-24.5 132.34-24.5L132.34-24.5Q136.79-24.5 140.24-21.7L140.24-21.7 137.29-18.7Q135.19-20.3 132.34-20.3L132.34-20.3Q128.89-20.3 126.86-18.03 124.84-15.75 124.84-12 124.84-8.25 126.86-5.98 128.89-3.7 132.34-3.7L132.34-3.7Q135.24-3.7 137.24-5.25ZM146.44-19.8L141.99-19.8 150.94-28.75 150.94-24 157.69-24 157.69-19.8 150.94-19.8 150.94-9.5Q150.94-7.75 151.51-6.6 152.09-5.45 153.19-4.98 154.29-4.5 155.26-4.35 156.24-4.2 157.69-4.2L157.69-4.2 157.69 0Q151.94 0 149.19-2.2 146.44-4.4 146.44-9.5L146.44-9.5 146.44-19.8ZM177.73 0L173.33 0 173.33-13.65Q173.33-19.4 175.48-21.6L175.48-21.6Q176.53-22.7 178.03-23.25 179.53-23.8 180.66-23.9 181.78-24 183.73-24L183.73-24 188.13-24 188.13-19.8 182.83-19.8Q181.83-19.8 181.28-19.75 180.73-19.7 179.98-19.4 179.23-19.1 178.68-18.45L178.68-18.45Q177.73-17.25 177.73-13.65L177.73-13.65 177.73 0ZM197.88-24L197.88 0 193.48 0 193.48-19.8 189.38-19.8 191.38-24 197.88-24ZM193.28-29L193.28-29Q192.63-29.85 192.63-30.85 192.63-31.85 193.28-32.68 193.93-33.5 195.28-33.5 196.63-33.5 197.28-32.68 197.93-31.85 197.93-30.85 197.93-29.85 197.28-29.03 196.63-28.2 195.28-28.2 193.93-28.2 193.28-29ZM213.18 0.55L213.18 0.55Q208.88-3.5 206.85-8.4 204.83-13.3 202.83-24L202.83-24 207.43-24Q209.38-11.95 213.18-5.75L213.18-5.75Q216.98-11.95 218.93-24L218.93-24 223.53-24Q221.53-13.3 219.5-8.4 217.48-3.5 213.18 0.55ZM239.52-24.5L239.52-24.5Q248.02-24.15 248.02-17.45L248.02-17.45Q248.02-9.1 237.07-9.1L237.07-9.1 235.02-9.1 235.02-12.95 237.42-12.95Q240.77-12.95 242.07-13.98 243.37-15 243.37-17.4L243.37-17.4Q243.37-18.95 242.22-19.73 241.07-20.5 239.27-20.5L239.27-20.5Q235.72-20.5 233.7-18 231.67-15.5 231.67-12L231.67-12Q231.67-8.3 233.85-6 236.02-3.7 239.52-3.7L239.52-3.7Q242.67-3.7 244.67-5.25L244.67-5.25 247.67-2.3Q244.22 0.5 239.52 0.5L239.52 0.5Q233.82 0.5 230.42-2.85 227.02-6.2 227.02-11.5L227.02-11.5Q227.02-17.4 230.37-21.05 233.72-24.7 239.52-24.5ZM256.67 0L252.27 0 252.27-13.65Q252.27-19.4 254.42-21.6L254.42-21.6Q255.47-22.7 256.97-23.25 258.47-23.8 259.6-23.9 260.72-24 262.67-24L262.67-24 267.07-24 267.07-19.8 261.77-19.8Q260.77-19.8 260.22-19.75 259.67-19.7 258.92-19.4 258.17-19.1 257.62-18.45L257.62-18.45Q256.67-17.25 256.67-13.65L256.67-13.65 256.67 0ZM285.62 0L281.22 0 281.22-13.65Q281.22-19.4 283.37-21.6L283.37-21.6Q284.42-22.7 285.92-23.25 287.42-23.8 288.54-23.9 289.67-24 291.62-24L291.62-24 296.02-24 296.02-19.8 290.72-19.8Q289.72-19.8 289.17-19.75 288.62-19.7 287.87-19.4 287.12-19.1 286.57-18.45L286.57-18.45Q285.62-17.25 285.62-13.65L285.62-13.65 285.62 0ZM311.01-24.5L311.01-24.5Q319.51-24.15 319.51-17.45L319.51-17.45Q319.51-9.1 308.56-9.1L308.56-9.1 306.51-9.1 306.51-12.95 308.91-12.95Q312.26-12.95 313.56-13.98 314.86-15 314.86-17.4L314.86-17.4Q314.86-18.95 313.71-19.73 312.56-20.5 310.76-20.5L310.76-20.5Q307.21-20.5 305.19-18 303.16-15.5 303.16-12L303.16-12Q303.16-8.3 305.34-6 307.51-3.7 311.01-3.7L311.01-3.7Q314.16-3.7 316.16-5.25L316.16-5.25 319.16-2.3Q315.71 0.5 311.01 0.5L311.01 0.5Q305.31 0.5 301.91-2.85 298.51-6.2 298.51-11.5L298.51-11.5Q298.51-17.4 301.86-21.05 305.21-24.7 311.01-24.5ZM332.31-24L341.16-24 341.16-19.8 332.31-19.8Q330.86-19.8 329.81-19.25 328.76-18.7 328.76-17.7L328.76-17.7Q328.76-17.1 329.01-16.63 329.26-16.15 329.59-15.85 329.91-15.55 330.59-15.23 331.26-14.9 331.64-14.78 332.01-14.65 334.81-13.75 337.61-12.85 338.96-12.25 340.31-11.65 341.04-10.63 341.76-9.6 341.96-8.63 342.16-7.65 342.16-6.7L342.16-6.7Q342.16 0 332.96 0L332.96 0 324.31 0 324.31-4.2 332.96-4.2Q337.66-4.2 337.66-6.7L337.66-6.7Q337.66-7.9 336.29-8.7 334.91-9.5 332.94-10.05 330.96-10.6 328.99-11.33 327.01-12.05 325.64-13.68 324.26-15.3 324.26-17.7L324.26-17.7Q324.26-20.75 326.61-22.38 328.96-24 332.31-24L332.31-24ZM349.91-20.85L349.91-20.85Q353.41-24.5 358.66-24.5L358.66-24.5Q361.21-24.5 363.43-23.53 365.66-22.55 367.33-20.85 369.01-19.15 369.96-16.88 370.91-14.6 370.91-12L370.91-12Q370.91-9.4 369.98-7.13 369.06-4.85 367.41-3.15 365.76-1.45 363.51-0.48 361.26 0.5 358.66 0.5L358.66 0.5Q356.01 0.5 353.78-0.48 351.56-1.45 349.91-3.15 348.26-4.85 347.33-7.13 346.41-9.4 346.41-12L346.41-12Q346.41-17.3 349.91-20.85ZM358.66-20.3L358.66-20.3Q355.16-20.3 353.03-18 350.91-15.7 350.91-12 350.91-8.3 353.03-6 355.16-3.7 358.66-3.7L358.66-3.7Q362.21-3.7 364.31-6.03 366.41-8.35 366.41-12 366.41-15.65 364.31-17.98 362.21-20.3 358.66-20.3ZM396.06-24L396.06 0 387.41 0Q381.86 0 379.46-1.65L379.46-1.65Q377.31-3.1 376.73-5.13 376.16-7.15 376.16-10.45L376.16-10.45 376.16-24 380.56-24 380.56-10.5Q380.56-9.6 380.61-8.97 380.66-8.35 380.96-7.38 381.26-6.4 381.81-5.78 382.36-5.15 383.41-4.67 384.46-4.2 385.96-4.2L385.96-4.2 391.66-4.2 391.66-24 396.06-24ZM405.95 0L401.55 0 401.55-13.65Q401.55-19.4 403.7-21.6L403.7-21.6Q404.75-22.7 406.25-23.25 407.75-23.8 408.88-23.9 410-24 411.95-24L411.95-24 416.35-24 416.35-19.8 411.05-19.8Q410.05-19.8 409.5-19.75 408.95-19.7 408.2-19.4 407.45-19.1 406.9-18.45L406.9-18.45Q405.95-17.25 405.95-13.65L405.95-13.65 405.95 0ZM436-5.25L436-5.25 439-2.3Q435.55 0.5 431.1 0.5L431.1 0.5Q425.55 0.5 422.2-3.08 418.85-6.65 418.85-12L418.85-12Q418.85-17.25 422.38-20.88 425.9-24.5 431.1-24.5L431.1-24.5Q435.55-24.5 439-21.7L439-21.7 436.05-18.7Q433.95-20.3 431.1-20.3L431.1-20.3Q427.65-20.3 425.63-18.03 423.6-15.75 423.6-12 423.6-8.25 425.63-5.98 427.65-3.7 431.1-3.7L431.1-3.7Q434-3.7 436-5.25ZM455-24.5L455-24.5Q463.5-24.15 463.5-17.45L463.5-17.45Q463.5-9.1 452.55-9.1L452.55-9.1 450.5-9.1 450.5-12.95 452.9-12.95Q456.25-12.95 457.55-13.98 458.85-15 458.85-17.4L458.85-17.4Q458.85-18.95 457.7-19.73 456.55-20.5 454.75-20.5L454.75-20.5Q451.2-20.5 449.17-18 447.15-15.5 447.15-12L447.15-12Q447.15-8.3 449.32-6 451.5-3.7 455-3.7L455-3.7Q458.15-3.7 460.15-5.25L460.15-5.25 463.15-2.3Q459.7 0.5 455 0.5L455 0.5Q449.3 0.5 445.9-2.85 442.5-6.2 442.5-11.5L442.5-11.5Q442.5-17.4 445.85-21.05 449.2-24.7 455-24.5ZM476.3-24L485.14-24 485.14-19.8 476.3-19.8Q474.85-19.8 473.8-19.25 472.75-18.7 472.75-17.7L472.75-17.7Q472.75-17.1 473-16.63 473.25-16.15 473.57-15.85 473.89-15.55 474.57-15.23 475.25-14.9 475.62-14.78 476-14.65 478.8-13.75 481.6-12.85 482.94-12.25 484.3-11.65 485.02-10.63 485.75-9.6 485.94-8.63 486.14-7.65 486.14-6.7L486.14-6.7Q486.14 0 476.94 0L476.94 0 468.3 0 468.3-4.2 476.94-4.2Q481.64-4.2 481.64-6.7L481.64-6.7Q481.64-7.9 480.27-8.7 478.89-9.5 476.92-10.05 474.94-10.6 472.97-11.33 471-12.05 469.62-13.68 468.25-15.3 468.25-17.7L468.25-17.7Q468.25-20.75 470.6-22.38 472.94-24 476.3-24L476.3-24Z" opacity="1" transform="matrix(1,0,0,1,0,0)" fill="#000000" class="slogan-text-1" data-fill-palette-color="secondary" id="text-1"></path></svg></g></svg></g></svg></g></svg></g><g transform="matrix(1,0,0,1,83.13662536212063,0)"><svg viewBox="0 0 229.2467492757588 229.2467492757588" height="229.2467492757588" width="229.2467492757588"><g><svg></svg></g><g id="icon-0"><svg viewBox="0 0 229.2467492757588 229.2467492757588" height="229.2467492757588" width="229.2467492757588"><g><path d="M0 114.623c0-63.305 51.319-114.623 114.623-114.623 63.305 0 114.623 51.319 114.624 114.623 0 63.305-51.319 114.623-114.624 114.624-63.305 0-114.623-51.319-114.623-114.624zM114.623 223.139c59.931 0 108.516-48.584 108.516-108.516 0-59.931-48.584-108.516-108.516-108.515-59.931 0-108.516 48.584-108.515 108.515 0 59.931 48.584 108.516 108.515 108.516z" data-fill-palette-color="accent" fill="#000000" stroke="transparent"></path><ellipse rx="113.4771408915006" ry="113.4771408915006" cx="114.6233746378794" cy="114.6233746378794" fill="#000000" stroke="transparent" stroke-width="0" fill-opacity="1" data-fill-palette-color="accent"></ellipse></g><g transform="matrix(1,0,0,1,56.41242757020272,46.53328511746386)"><svg viewBox="0 0 116.42189413535334 136.18017904083106" height="136.18017904083106" width="116.42189413535334"><g><svg xmlns="http://www.w3.org/2000/svg" xmlns:xlink="http://www.w3.org/1999/xlink" version="1.1" x="0" y="0" viewBox="11.7 5.2 76.6 89.6" style="enable-background:new 0 0 100 100;" xml:space="preserve" height="136.18017904083106" width="116.42189413535334" class="icon-dxe-0" data-fill-palette-color="quaternary" id="dxe-0"><path d="M50 5.2C28.8 5.2 11.7 22.4 11.7 43.5 11.7 60.4 22.6 74.7 37.8 79.8L50 94.8 62.2 79.9C77.4 74.8 88.3 60.5 88.3 43.6 88.3 22.4 71.2 5.2 50 5.2M66.8 51.9C64.6 54.1 62.4 55.2 60.2 55.2H59.5C56.5 54.9 54.6 52.5 54.2 51.9 52.4 50.2 50.7 49.4 49.2 49.5 47.1 49.7 45.8 51.7 45.8 51.7L45.7 51.8 45.6 51.9C43.4 54 41.2 55.1 39.1 55.1H38.4C35 54.7 33 51.8 33 51.6 32.6 51 32.8 50.1 33.4 49.7S34.9 49.5 35.3 50.1C35.3 50.1 36.7 52.1 38.8 52.3 40.3 52.5 42 51.7 43.8 49.9 44.2 49.3 46.1 46.9 49.1 46.6 51.5 46.3 54 47.4 56.4 49.8L56.5 49.9 56.6 50S58 52 60.1 52.2C61.7 52.4 63.4 51.5 65.2 49.7 65.7 49.2 66.6 49.2 67.1 49.7 67.4 50.5 67.4 51.3 66.8 51.9M72.1 38.4C69.9 40.6 67.7 41.7 65.5 41.7H64.8C61.8 41.4 59.9 39 59.5 38.4 57.7 36.7 56 35.9 54.5 36 52.4 36.2 51.1 38.2 51.1 38.2L51 38.3 50.9 38.4C48.7 40.5 46.5 41.6 44.4 41.6H43.7C40.7 41.3 38.8 38.9 38.4 38.3 36.6 36.6 34.9 35.8 33.4 35.9 31.3 36.1 30 38.1 30 38.1 29.7 38.5 29.3 38.7 28.9 38.7 28.7 38.7 28.4 38.6 28.2 38.5 27.6 38.1 27.4 37.3 27.8 36.6 27.9 36.5 29.8 33.5 33.2 33.1 35.6 32.8 38.1 33.9 40.5 36.3L40.6 36.4 40.7 36.5S42.1 38.5 44.2 38.7C45.7 38.9 47.4 38.1 49.2 36.3 49.6 35.7 51.5 33.3 54.5 33 56.9 32.7 59.4 33.8 61.8 36.2L61.9 36.3 62 36.4S63.4 38.4 65.5 38.6C67.1 38.8 68.8 37.9 70.6 36.1 71.1 35.6 72 35.6 72.5 36.1 72.7 37 72.7 37.9 72.1 38.4" fill="#ffffff" data-fill-palette-color="quaternary"></path></svg></g></svg></g></svg></g></svg></g><g></g></svg></g><defs></defs></svg><rect width="269.2055799521139" height="247.2" fill="none" stroke="none" visibility="hidden"></rect></g></svg></g></svg>